<?xml version="1.0" encoding="UTF-8"?>
<svg version="1.1" xmlns="http://www.w3.org/2000/svg">
  <symbol id="fleur-left" viewBox="0 0 100 100">
    <g transform="matrix(0 -.28212 .28212 0 -.41961 95.912)">
      <g fill-rule="evenodd">
        <path d="m162.7 0s-45.219 52.17-45.219 112.69c0 36.014 42.701 49.235 45.219 121 2.5181-71.765 45.219-84.986 45.219-121 0-60.518-45.219-112.69-45.219-112.69z"/>
        <path d="m157 234.44c-21.404-146.68-188.58-108-151.71-10.702 6.5064 17.171 38.401 51.298 76.298 41.578 40.423-10.368 27.312-67.579-6.4234-60.306-21.834 4.7074-22.462 34.97-1.2362 40.403-17.531 4.7416-34.138-34.177-3.168-49.374 22.138-10.864 66.573 7.2153 68.778 43.457 8.2157-4.575 17.368-4.8534 17.467-5.0559z"/>
        <path d="m145.3 278.44s1.2 8.0851-3.2812 25.812c-6.0063 23.76-27 17.469-27 17.469 13.5 13 30.657 10.885 40.094-5.3438-9.7325 21.066 7.5938 41.062 7.5938 41.062s17.326-19.997 7.5938-41.062c9.4363 16.229 26.594 18.344 40.094 5.3438 0 0-20.994 6.2918-27-17.469-4.4812-17.727-3.2812-25.812-3.2812-25.812s-7.3594 2.4624-17.406 2.0312c-10.047 0.43115-17.406-2.0312-17.406-2.0312z"/>
      </g>
      <path d="m195.44 257.6a32.735 16.735 0 1 1-65.47 0 32.735 16.735 0 1 1 65.47 0z"/>
      <path d="m168.48 234.44c21.404-146.68 188.58-108 151.71-10.702-6.5064 17.171-38.401 51.298-76.298 41.578-40.423-10.368-27.312-67.579 6.4233-60.306 21.834 4.7074 22.462 34.97 1.2362 40.403 17.531 4.7416 34.138-34.177 3.168-49.374-22.138-10.864-66.573 7.2153-68.778 43.457-8.2157-4.575-17.368-4.8534-17.467-5.0559z" fill-rule="evenodd"/>
    </g>
  </symbol>
</svg>
